USFL
nRows=257
nColumns=2
inDegrees=yes
endheader
time	tib_ant_r	
7.68448	 54.267763	
7.71774	 54.279161	
7.75101	 54.280616	
7.78427	 54.281974	
7.81754	 54.285443	
7.85081	 54.297935	
7.88407	 54.298108	
7.91734	 54.304069	
7.9506	 54.300327	
7.98387	 54.306732	
8.01714	 54.317666	
8.0504	 54.312395	
8.08367	 54.312339	
8.11694	 54.291395	
8.1502	 54.286458	
8.18347	 54.280514	
8.21673	 54.283157	
8.25	 54.285633	
8.28327	 54.276906	
8.31653	 54.286231	
8.3498	 54.265949	
8.38306	 54.279853	
8.41633	 54.278692	
8.4496	 54.298263	
8.48286	 54.278180	
8.51613	 54.290250	
8.5494	 54.283611	
8.58266	 54.274194	
8.61593	 54.296300	
8.64919	 54.296675	
8.68246	 54.307714	
8.71573	 54.344599	
8.74899	 54.347922	
8.78226	 54.358012	
8.81552	 54.413418	
8.84879	 54.404137	
8.88206	 54.436069	
8.91532	 54.427352	
8.94859	 54.456420	
8.98185	 54.502919	
9.01512	 54.485052	
9.04839	 54.487716	
9.08165	 54.517687	
9.11492	 54.563184	
9.14819	 54.585214	
9.18145	 54.618666	
9.21472	 54.642310	
9.24798	 54.644368	
9.28125	 54.715559	
9.31452	 54.795213	
9.34778	 54.860834	
9.38105	 54.907941	
9.41431	 54.996389	
9.44758	 55.166609	
9.48085	 55.159195	
9.51411	 55.340645	
9.54738	 55.619381	
9.58065	 55.862048	
9.61391	 56.109582	
9.64718	 55.904650	
9.68044	 55.344150	
9.71371	 55.044259	
9.74698	 54.670994	
9.78024	 54.255431	
9.81351	 54.025581	
9.84677	 53.924828	
9.88004	 53.660837	
9.91331	 53.152645	
9.94657	 52.659617	
9.97984	 52.089122	
10.0131	 52.160680	
10.0464	 51.943012	
10.0796	 51.575642	
10.1129	 51.613092	
10.1462	 51.545685	
10.1794	 51.505324	
10.2127	 51.243090	
10.246	 50.967657	
10.2792	 50.834456	
10.3125	 50.169088	
10.3458	 49.817379	
10.379	 49.577714	
10.4123	 49.062831	
10.4456	 48.926163	
10.4788	 48.756338	
10.5121	 48.608331	
10.5454	 48.481531	
10.5786	 48.207923	
10.6119	 48.035874	
10.6452	 47.969620	
10.6784	 47.391973	
10.7117	 47.221593	
10.745	 46.810251	
10.7782	 46.591631	
10.8115	 46.408742	
10.8448	 46.018033	
10.878	 45.641198	
10.9113	 45.483333	
10.9446	 45.147148	
10.9778	 44.737749	
11.0111	 44.536057	
11.0444	 43.679562	
11.0776	 43.485420	
11.1109	 43.184913	
11.1442	 42.930713	
11.1774	 42.656577	
11.2107	 42.515697	
11.244	 42.323085	
11.2772	 42.109597	
11.3105	 41.945266	
11.3437	 41.708854	
11.377	 41.583465	
11.4103	 41.303866	
11.4435	 41.226061	
11.4768	 41.116138	
11.5101	 41.204462	
11.5433	 41.189376	
11.5766	 41.276401	
11.6099	 41.464600	
11.6431	 41.623745	
11.6764	 41.833549	
11.7097	 41.942820	
11.7429	 42.070979	
11.7762	 41.945276	
11.8095	 41.866517	
11.8427	 41.718591	
11.876	 41.637175	
11.9093	 41.635637	
11.9425	 41.625026	
11.9758	 41.700173	
12.0091	 41.703860	
12.0423	 41.694446	
12.0756	 41.756459	
12.1089	 41.740342	
12.1421	 41.729968	
12.1754	 41.749863	
12.2087	 41.759206	
12.2419	 41.777103	
12.2752	 41.738054	
12.3085	 41.742273	
12.3417	 41.670519	
12.375	 41.638704	
12.4083	 41.610439	
12.4415	 41.581953	
12.4748	 41.643797	
12.5081	 41.470528	
12.5413	 41.473013	
12.5746	 41.416703	
12.6079	 41.262884	
12.6411	 41.218676	
12.6744	 41.174068	
12.7077	 41.078050	
12.7409	 41.027568	
12.7742	 40.975405	
12.8075	 40.832380	
12.8407	 40.812595	
12.874	 40.747290	
12.9073	 40.513660	
12.9405	 40.490597	
12.9738	 40.467963	
13.0071	 40.489988	
13.0403	 40.492605	
13.0736	 40.380135	
13.1069	 40.311614	
13.1401	 40.295796	
13.1734	 40.281295	
13.2067	 40.294863	
13.2399	 40.335390	
13.2732	 40.345409	
13.3065	 40.347433	
13.3397	 40.314798	
13.373	 40.295501	
13.4062	 40.229476	
13.4395	 40.188794	
13.4728	 40.229409	
13.506	 40.360343	
13.5393	 40.561359	
13.5726	 40.684545	
13.6058	 40.786529	
13.6391	 41.054133	
13.6724	 41.392107	
13.7056	 41.763850	
13.7389	 41.892439	
13.7722	 42.007399	
13.8054	 42.574089	
13.8387	 42.867368	
13.872	 43.218175	
13.9052	 43.501045	
13.9385	 43.611590	
13.9718	 43.909104	
14.005	 44.583907	
14.0383	 44.906604	
14.0716	 45.552022	
14.1048	 46.086240	
14.1381	 46.394030	
14.1714	 46.713215	
14.2046	 47.207807	
14.2379	 47.306706	
14.2712	 47.672846	
14.3044	 48.151936	
14.3377	 48.447108	
14.371	 49.118512	
14.4042	 49.380591	
14.4375	 49.569226	
14.4708	 49.680816	
14.504	 49.813527	
14.5373	 49.885556	
14.5706	 49.954091	
14.6038	 50.014890	
14.6371	 50.086983	
14.6704	 49.975569	
14.7036	 50.115993	
14.7369	 50.057018	
14.7702	 50.154340	
14.8034	 50.179347	
14.8367	 50.131120	
14.87	 50.176492	
14.9032	 50.257306	
14.9365	 50.315076	
14.9698	 50.273497	
15.003	 50.253917	
15.0363	 50.146420	
15.0696	 50.169131	
15.1028	 49.966425	
15.1361	 49.921761	
15.1694	 49.877412	
15.2026	 49.882404	
15.2359	 49.789078	
15.2692	 49.721867	
15.3024	 49.648269	
15.3357	 49.589237	
15.369	 49.532612	
15.4022	 49.510654	
15.4355	 49.469379	
15.4687	 49.497011	
15.502	 49.420920	
15.5353	 49.448153	
15.5685	 49.435659	
15.6018	 49.445375	
15.6351	 49.408808	
15.6683	 49.373569	
15.7016	 49.395825	
15.7349	 49.413290	
15.7681	 49.440827	
15.8014	 49.369901	
15.8347	 49.272181	
15.8679	 49.273761	
15.9012	 49.279739	
15.9345	 49.304779	
15.9677	 49.359476	
16.001	 49.382062	
16.0343	 49.390901	
16.0675	 49.380392	
16.1008	 49.362996	
16.1341	 49.383146	
16.1673	 49.368177	
16.2006	 49.365624	
